<svg width="73" height="73" viewBox="0 0 73 73" fill="none" xmlns="http://www.w3.org/2000/svg">
<path d="M30.4167 57.7917L29.7096 57.0846L29.0025 57.7917L29.7096 58.4988L30.4167 57.7917ZM41.8762 44.9179L29.7096 57.0846L31.1238 58.4988L43.2904 46.3321L41.8762 44.9179ZM29.7096 58.4988L41.8762 70.6654L43.2904 69.2512L31.1238 57.0846L29.7096 58.4988Z" fill="#B43C25"/>
<path d="M54.9391 25.8538C56.8079 29.0906 57.7917 32.7622 57.7917 36.4997C57.7917 40.2371 56.8079 43.9088 54.9391 47.1455C53.0704 50.3823 50.3826 53.0701 47.1458 54.9388C43.9091 56.8075 40.2375 57.7913 36.5 57.7913" stroke="#B43C25" stroke-width="2" stroke-linecap="round"/>
<path d="M42.5833 15.2083L43.2904 15.9154L43.9975 15.2083L43.2904 14.5012L42.5833 15.2083ZM31.1238 28.0821L43.2904 15.9154L41.8762 14.5012L29.7096 26.6679L31.1238 28.0821ZM43.2904 14.5012L31.1238 2.33456L29.7096 3.74878L41.8762 15.9154L43.2904 14.5012Z" fill="#B43C25"/>
<path d="M18.0609 47.1462C16.1922 43.9094 15.2083 40.2378 15.2083 36.5003C15.2083 32.7629 16.1922 29.0912 18.0609 25.8545C19.9296 22.6177 22.6174 19.9299 25.8542 18.0612C29.0909 16.1925 32.7625 15.2087 36.5 15.2087" stroke="#B43C25" stroke-width="2" stroke-linecap="round"/>
</svg>
