<svg width="80" height="80" viewBox="0 0 80 80" fill="none" xmlns="http://www.w3.org/2000/svg">
<path d="M38.2111 69.1052L38.6584 68.2108L38.2111 69.1052ZM41.7889 69.1052L41.3416 68.2108L41.7889 69.1052ZM46.0359 66.9817L46.4831 67.8762L46.0359 66.9817ZM46.1823 66.9051L46.698 67.7619L46.1823 66.9051ZM46.6636 66.1263L45.6667 66.0483L46.6636 66.1263ZM29.2322 50.1899L28.6931 51.0321L29.2322 50.1899ZM29.9894 51.0316L29.085 51.4581L29.9894 51.0316ZM29.7178 50.547L28.9667 51.2072L29.7178 50.547ZM33.3364 66.1263L34.3333 66.0483L33.3364 66.1263ZM33.9641 66.9817L33.5169 67.8762L33.9641 66.9817ZM33.8177 66.9051L34.3333 66.0483L33.8177 66.9051ZM50.7678 50.1899L50.2287 49.3477L50.7678 50.1899ZM50.0106 51.0316L50.915 51.4581L50.0106 51.0316ZM50.2822 50.547L51.0333 51.2072L50.2822 50.547ZM59 33.333C59 40.0592 55.5057 45.9698 50.2287 49.3477L51.3069 51.0321C57.134 47.3022 61 40.7694 61 33.333H59ZM40 14.333C50.4934 14.333 59 22.8396 59 33.333H61C61 21.735 51.598 12.333 40 12.333V14.333ZM21 33.333C21 22.8396 29.5066 14.333 40 14.333V12.333C28.402 12.333 19 21.735 19 33.333H21ZM29.7713 49.3477C24.4943 45.9698 21 40.0591 21 33.333H19C19 40.7694 22.866 47.3022 28.6931 51.0321L29.7713 49.3477ZM34.3333 65.9611C34.3333 60.6399 33.1538 55.3969 30.8939 50.605L29.085 51.4581C31.2194 55.9838 32.3333 60.9355 32.3333 65.9611H34.3333ZM38.6584 68.2108L34.4113 66.0873L33.5169 67.8762L37.7639 69.9997L38.6584 68.2108ZM41.3416 68.2108C40.4971 68.6331 39.5029 68.6331 38.6584 68.2108L37.7639 69.9997C39.1716 70.7035 40.8284 70.7035 42.2361 69.9997L41.3416 68.2108ZM45.5887 66.0873L41.3416 68.2108L42.2361 69.9997L46.4831 67.8762L45.5887 66.0873ZM49.1061 50.605C46.8461 55.3969 45.6667 60.6399 45.6667 65.9611H47.6667C47.6667 60.9355 48.7806 55.9838 50.915 51.4581L49.1061 50.605ZM46.4831 67.8762C46.5436 67.8459 46.623 67.807 46.698 67.7619L45.6667 66.0483C45.6747 66.0435 45.6772 66.0425 45.6645 66.0491C45.6495 66.0569 45.6288 66.0672 45.5887 66.0873L46.4831 67.8762ZM45.6667 65.9611C45.6667 66.006 45.6666 66.0291 45.6664 66.046C45.6662 66.0603 45.6659 66.0577 45.6667 66.0483L47.6606 66.2044C47.6674 66.1172 47.6667 66.0287 47.6667 65.9611H45.6667ZM46.698 67.7619C47.2516 67.4287 47.6101 66.8486 47.6606 66.2044L45.6667 66.0483L46.698 67.7619ZM28.6931 51.0321C28.8324 51.1213 28.9051 51.1682 28.9564 51.2048C29.0005 51.2364 28.9897 51.2334 28.9667 51.2072L30.4689 49.8869C30.26 49.6492 29.9798 49.4811 29.7713 49.3477L28.6931 51.0321ZM30.8939 50.605C30.7975 50.4005 30.6762 50.1227 30.4689 49.8869L28.9667 51.2072C28.9484 51.1865 28.9459 51.1762 28.9649 51.2111C28.9898 51.2571 29.021 51.3224 29.085 51.4581L30.8939 50.605ZM32.3333 65.9611C32.3333 66.0287 32.3326 66.1172 32.3394 66.2044L34.3333 66.0483C34.3341 66.0577 34.3338 66.0603 34.3336 66.046C34.3334 66.0291 34.3333 66.006 34.3333 65.9611H32.3333ZM34.4113 66.0873C34.3712 66.0672 34.3505 66.0569 34.3355 66.0491C34.3228 66.0425 34.3253 66.0435 34.3333 66.0483L33.302 67.7619C33.377 67.807 33.4564 67.8459 33.5169 67.8762L34.4113 66.0873ZM32.3394 66.2044C32.3899 66.8486 32.7484 67.4287 33.302 67.7619L34.3333 66.0483L32.3394 66.2044ZM50.2287 49.3477C50.0202 49.4811 49.74 49.6492 49.5311 49.8869L51.0333 51.2072C51.0103 51.2334 50.9995 51.2364 51.0436 51.2048C51.0949 51.1682 51.1676 51.1213 51.3069 51.0321L50.2287 49.3477ZM50.915 51.4581C50.979 51.3224 51.0102 51.2571 51.0351 51.2111C51.0541 51.1762 51.0516 51.1865 51.0333 51.2072L49.5311 49.8869C49.3238 50.1227 49.2025 50.4005 49.1061 50.605L50.915 51.4581Z" fill="#B73F27"/>
<path d="M49.9742 53.333V53.333C43.9373 57.3682 36.0638 57.3682 30.0269 53.333V53.333" stroke="#B73F27" stroke-width="2"/>
</svg>
