<svg width="80" height="80" viewBox="0 0 80 80" fill="none" xmlns="http://www.w3.org/2000/svg">
<path d="M63.0356 22.1174L40.7878 12.5827C40.2847 12.3671 39.7153 12.3671 39.2122 12.5827L16.9645 22.1174C16.1452 22.4685 15.6572 23.3194 15.7677 24.2038L18.7141 47.7743C18.9342 49.5355 19.8152 51.1474 21.1787 52.2836L38.7196 66.9011C39.4613 67.5191 40.5387 67.5191 41.2804 66.9011L58.8213 52.2836C60.1848 51.1474 61.0658 49.5355 61.286 47.7743L64.2323 24.2038C64.3428 23.3194 63.8548 22.4685 63.0356 22.1174Z" stroke="#B73F27" stroke-width="2" stroke-linecap="round"/>
<path d="M30 40L39.5687 49.5687C39.7918 49.7918 40.1633 49.7551 40.3383 49.4925L53.3333 30" stroke="#B73F27" stroke-width="2" stroke-linecap="round"/>
</svg>
