<svg width="80" height="80" viewBox="0 0 80 80" fill="none" xmlns="http://www.w3.org/2000/svg">
<path d="M40 13.3337L31.8522 26.9134C30.9498 28.4174 30.4986 29.1694 30.4986 30.0003C30.4986 30.8313 30.9498 31.5833 31.8522 33.0873L39.5713 45.9524C39.7627 46.2715 39.8585 46.4311 40 46.4311C40.1415 46.4311 40.2373 46.2715 40.4287 45.9524L48.1478 33.0873C49.0502 31.5833 49.5014 30.8313 49.5014 30.0003C49.5014 29.1694 49.0502 28.4174 48.1478 26.9134L40 13.3337ZM40 13.3337V6.66699" stroke="#B73F27" stroke-width="2"/>
<path d="M67.2009 41.9936L51.3666 41.7272C49.6129 41.6977 48.736 41.683 48.0164 42.0984C47.2968 42.5139 46.8711 43.2807 46.0198 44.8142L38.7378 57.9317C38.5572 58.257 38.4669 58.4197 38.5377 58.5423C38.6084 58.6649 38.7945 58.668 39.1666 58.6743L54.1676 58.9266C55.9213 58.9561 56.7982 58.9709 57.5178 58.5554C58.2374 58.1399 58.6631 57.3732 59.5144 55.8397L67.2009 41.9936ZM67.2009 41.9936L72.9744 38.6603" stroke="#B73F27" stroke-width="2"/>
<path d="M12.7992 41.9936L28.6334 41.7272C30.3872 41.6977 31.264 41.683 31.9836 42.0984C32.7033 42.5139 33.1289 43.2807 33.9802 44.8142L41.2622 57.9317C41.4428 58.257 41.5332 58.4197 41.4624 58.5423C41.3916 58.6649 41.2056 58.668 40.8335 58.6743L25.8324 58.9266C24.0787 58.9561 23.2018 58.9709 22.4822 58.5554C21.7626 58.1399 21.3369 57.3732 20.4856 55.8397L12.7992 41.9936ZM12.7992 41.9936L7.02567 38.6603" stroke="#B73F27" stroke-width="2"/>
<path d="M40 50V75" stroke="#B73F27" stroke-width="2"/>
</svg>
